<?xml version="1.0" encoding="UTF-8" standalone="no"?>
<!-- Created with Inkscape (http://www.inkscape.org/) -->

<svg
   xmlns:dc="http://purl.org/dc/elements/1.1/"
   xmlns:cc="http://creativecommons.org/ns#"
   xmlns:rdf="http://www.w3.org/1999/02/22-rdf-syntax-ns#"
   xmlns:svg="http://www.w3.org/2000/svg"
   xmlns="http://www.w3.org/2000/svg"
   version="1.1"
   width="55"
   height="55"
   viewBox="0 0 55 55"
   id="svg2">
  <metadata
     id="metadata20">
    <rdf:RDF>
      <cc:Work
         rdf:about="">
        <dc:format>image/svg+xml</dc:format>
        <dc:type
           rdf:resource="http://purl.org/dc/dcmitype/StillImage" />
        <dc:title></dc:title>
      </cc:Work>
    </rdf:RDF>
  </metadata>
  <defs
     id="defs18">
	
	
	
	
	
	
	

		
	
			
			
		</defs>
  <rect
     width="44.404602"
     height="30.412962"
     ry="0"
     x="5.297699"
     y="12.293519"
     id="rect2997"
     style="fill:#ffffff;fill-opacity:1;stroke:#000000;stroke-width:3;stroke-linecap:butt;stroke-linejoin:miter;stroke-miterlimit:4;stroke-opacity:1;stroke-dasharray:none" />
  <path
     d="m 27.499,22.746 c -4.757,0 -8.72,4.744 -8.72,4.744 0,0 3.963,4.767 8.72,4.764 4.757,-0.004 8.722,-4.77 8.722,-4.77 0,0 -3.964,-4.741 -8.722,-4.738 z m 0,8.09 c -1.842,0 -3.335,-1.494 -3.335,-3.336 0,-1.839 1.493,-3.336 3.335,-3.336 1.839,0 3.333,1.497 3.333,3.336 10e-4,1.842 -1.493,3.336 -3.333,3.336 z"
     id="path3156"
     style="fill:#010101;stroke:#000000;stroke-width:1.5;stroke-miterlimit:4;stroke-opacity:1;stroke-dasharray:none;display:inline" />
</svg>
